<mxfile host="app.diagrams.net" agent="Mozilla/5.0 (Windows NT 10.0; Win64; x64) AppleWebKit/537.36 (KHTML, like Gecko) Chrome/137.0.0.0 Safari/537.36" version="27.2.0">
  <diagram name="Page-1" id="PoK5Ohl82_OTe6TjwJMU">
    <mxGraphModel grid="0" page="1" gridSize="10" guides="1" tooltips="1" connect="1" arrows="1" fold="1" pageScale="1" pageWidth="850" pageHeight="1100" background="#333333" math="0" shadow="0">
      <root>
        <mxCell id="0" />
        <mxCell id="1" parent="0" />
        <mxCell id="GpqMO6I22LO64prLC7ko-1" style="edgeStyle=orthogonalEdgeStyle;rounded=0;orthogonalLoop=1;jettySize=auto;html=1;exitX=0.5;exitY=1;exitDx=0;exitDy=0;entryX=0.5;entryY=0;entryDx=0;entryDy=0;fontColor=#FFFFFF;strokeColor=#FFFFFF;" edge="1" parent="1" source="TapobgN4DE6I1lpDJsEz-1" target="TapobgN4DE6I1lpDJsEz-2">
          <mxGeometry relative="1" as="geometry" />
        </mxCell>
        <mxCell id="TapobgN4DE6I1lpDJsEz-1" value="User Question" style="rounded=1;whiteSpace=wrap;html=1;fillColor=#999999;fontColor=#FFFFFF;" vertex="1" parent="1">
          <mxGeometry x="387" y="36" width="139" height="42" as="geometry" />
        </mxCell>
        <mxCell id="GpqMO6I22LO64prLC7ko-2" style="edgeStyle=orthogonalEdgeStyle;rounded=0;orthogonalLoop=1;jettySize=auto;html=1;exitX=0.5;exitY=1;exitDx=0;exitDy=0;entryX=0.5;entryY=0;entryDx=0;entryDy=0;strokeColor=#FFFFFF;" edge="1" parent="1" source="TapobgN4DE6I1lpDJsEz-2" target="TapobgN4DE6I1lpDJsEz-12">
          <mxGeometry relative="1" as="geometry" />
        </mxCell>
        <mxCell id="TapobgN4DE6I1lpDJsEz-2" value="Orchestrator" style="rounded=1;whiteSpace=wrap;html=1;fillColor=#999999;fontColor=#FFFFFF;" vertex="1" parent="1">
          <mxGeometry x="387" y="105" width="139" height="39" as="geometry" />
        </mxCell>
        <mxCell id="GpqMO6I22LO64prLC7ko-4" style="edgeStyle=orthogonalEdgeStyle;rounded=0;orthogonalLoop=1;jettySize=auto;html=1;exitX=0.5;exitY=1;exitDx=0;exitDy=0;entryX=0.5;entryY=0;entryDx=0;entryDy=0;strokeColor=#FFFFFF;" edge="1" parent="1" source="TapobgN4DE6I1lpDJsEz-3" target="TapobgN4DE6I1lpDJsEz-13">
          <mxGeometry relative="1" as="geometry" />
        </mxCell>
        <mxCell id="TapobgN4DE6I1lpDJsEz-3" value="Extract Analytical Intent" style="rounded=1;whiteSpace=wrap;html=1;fillColor=#999999;fontColor=#FFFFFF;" vertex="1" parent="1">
          <mxGeometry x="245" y="249" width="142" height="39" as="geometry" />
        </mxCell>
        <mxCell id="GpqMO6I22LO64prLC7ko-6" style="edgeStyle=orthogonalEdgeStyle;rounded=0;orthogonalLoop=1;jettySize=auto;html=1;exitX=0.5;exitY=1;exitDx=0;exitDy=0;strokeColor=#FFFFFF;entryX=0.5;entryY=0;entryDx=0;entryDy=0;" edge="1" parent="1" source="TapobgN4DE6I1lpDJsEz-4" target="TapobgN4DE6I1lpDJsEz-5">
          <mxGeometry relative="1" as="geometry">
            <mxPoint x="222" y="468.6666564941406" as="targetPoint" />
          </mxGeometry>
        </mxCell>
        <mxCell id="TapobgN4DE6I1lpDJsEz-4" value="Create Sql Queries" style="rounded=1;whiteSpace=wrap;html=1;fillColor=#999999;fontColor=#FFFFFF;" vertex="1" parent="1">
          <mxGeometry x="151" y="414" width="142" height="39" as="geometry" />
        </mxCell>
        <mxCell id="GpqMO6I22LO64prLC7ko-10" style="edgeStyle=orthogonalEdgeStyle;rounded=0;orthogonalLoop=1;jettySize=auto;html=1;exitX=0.5;exitY=1;exitDx=0;exitDy=0;entryX=0.5;entryY=0;entryDx=0;entryDy=0;strokeColor=#FFFFFF;" edge="1" parent="1" source="TapobgN4DE6I1lpDJsEz-5" target="TapobgN4DE6I1lpDJsEz-14">
          <mxGeometry relative="1" as="geometry" />
        </mxCell>
        <mxCell id="TapobgN4DE6I1lpDJsEz-5" value="Execute Sql Queries" style="rounded=1;whiteSpace=wrap;html=1;fillColor=#999999;fontColor=#FFFFFF;" vertex="1" parent="1">
          <mxGeometry x="151" y="480" width="142" height="39" as="geometry" />
        </mxCell>
        <mxCell id="GpqMO6I22LO64prLC7ko-8" style="edgeStyle=orthogonalEdgeStyle;rounded=0;orthogonalLoop=1;jettySize=auto;html=1;exitX=0.5;exitY=1;exitDx=0;exitDy=0;entryX=0.5;entryY=0;entryDx=0;entryDy=0;strokeColor=#FFFFFF;" edge="1" parent="1" source="TapobgN4DE6I1lpDJsEz-6" target="TapobgN4DE6I1lpDJsEz-15">
          <mxGeometry relative="1" as="geometry" />
        </mxCell>
        <mxCell id="TapobgN4DE6I1lpDJsEz-6" value="Analyze Results" style="rounded=1;whiteSpace=wrap;html=1;fillColor=#999999;fontColor=#FFFFFF;" vertex="1" parent="1">
          <mxGeometry x="151" y="658" width="142" height="39" as="geometry" />
        </mxCell>
        <mxCell id="GpqMO6I22LO64prLC7ko-13" style="edgeStyle=orthogonalEdgeStyle;rounded=0;orthogonalLoop=1;jettySize=auto;html=1;exitX=0.5;exitY=1;exitDx=0;exitDy=0;entryX=0;entryY=0.75;entryDx=0;entryDy=0;strokeColor=#FFFFFF;" edge="1" parent="1" source="TapobgN4DE6I1lpDJsEz-7" target="TapobgN4DE6I1lpDJsEz-5">
          <mxGeometry relative="1" as="geometry">
            <Array as="points">
              <mxPoint x="67" y="717" />
              <mxPoint x="-269" y="717" />
              <mxPoint x="-269" y="533" />
              <mxPoint x="131" y="533" />
              <mxPoint x="131" y="509" />
            </Array>
          </mxGeometry>
        </mxCell>
        <mxCell id="TapobgN4DE6I1lpDJsEz-7" value="Refine Sql Query" style="rounded=1;whiteSpace=wrap;html=1;fillColor=#999999;fontColor=#FFFFFF;" vertex="1" parent="1">
          <mxGeometry x="-4" y="658" width="142" height="39" as="geometry" />
        </mxCell>
        <mxCell id="GpqMO6I22LO64prLC7ko-12" style="edgeStyle=orthogonalEdgeStyle;rounded=0;orthogonalLoop=1;jettySize=auto;html=1;exitX=0;exitY=0.5;exitDx=0;exitDy=0;entryX=0;entryY=0.5;entryDx=0;entryDy=0;strokeColor=#FFFFFF;" edge="1" parent="1" source="TapobgN4DE6I1lpDJsEz-8" target="TapobgN4DE6I1lpDJsEz-5">
          <mxGeometry relative="1" as="geometry" />
        </mxCell>
        <mxCell id="TapobgN4DE6I1lpDJsEz-8" value="Correct Sql Syntax" style="rounded=1;whiteSpace=wrap;html=1;fillColor=#999999;fontColor=#FFFFFF;" vertex="1" parent="1">
          <mxGeometry x="-159" y="658" width="142" height="39" as="geometry" />
        </mxCell>
        <mxCell id="GpqMO6I22LO64prLC7ko-23" style="edgeStyle=orthogonalEdgeStyle;rounded=0;orthogonalLoop=1;jettySize=auto;html=1;exitX=0.5;exitY=1;exitDx=0;exitDy=0;strokeColor=#FFFFFF;" edge="1" parent="1" source="TapobgN4DE6I1lpDJsEz-9">
          <mxGeometry relative="1" as="geometry">
            <mxPoint x="455" y="868.6666870117188" as="targetPoint" />
          </mxGeometry>
        </mxCell>
        <mxCell id="TapobgN4DE6I1lpDJsEz-9" value="Generate Answer" style="rounded=1;whiteSpace=wrap;html=1;fillColor=#999999;fontColor=#FFFFFF;" vertex="1" parent="1">
          <mxGeometry x="384" y="808" width="142" height="39" as="geometry" />
        </mxCell>
        <mxCell id="GpqMO6I22LO64prLC7ko-24" style="edgeStyle=orthogonalEdgeStyle;rounded=0;orthogonalLoop=1;jettySize=auto;html=1;exitX=0.5;exitY=1;exitDx=0;exitDy=0;entryX=0.5;entryY=0;entryDx=0;entryDy=0;strokeColor=#FFFFFF;" edge="1" parent="1" source="TapobgN4DE6I1lpDJsEz-10" target="TapobgN4DE6I1lpDJsEz-11">
          <mxGeometry relative="1" as="geometry" />
        </mxCell>
        <mxCell id="TapobgN4DE6I1lpDJsEz-10" value="Manage Chat Memory" style="rounded=1;whiteSpace=wrap;html=1;fillColor=#999999;fontColor=#FFFFFF;" vertex="1" parent="1">
          <mxGeometry x="387" y="869" width="142" height="39" as="geometry" />
        </mxCell>
        <mxCell id="TapobgN4DE6I1lpDJsEz-11" value="END" style="rounded=1;whiteSpace=wrap;html=1;fillColor=#FFCCCC;fontColor=#1A1A1A;" vertex="1" parent="1">
          <mxGeometry x="387" y="930" width="142" height="39" as="geometry" />
        </mxCell>
        <mxCell id="GpqMO6I22LO64prLC7ko-3" style="edgeStyle=orthogonalEdgeStyle;rounded=0;orthogonalLoop=1;jettySize=auto;html=1;exitX=0;exitY=0.5;exitDx=0;exitDy=0;entryX=0.5;entryY=0;entryDx=0;entryDy=0;strokeColor=#FFFFFF;" edge="1" parent="1" source="TapobgN4DE6I1lpDJsEz-12" target="TapobgN4DE6I1lpDJsEz-3">
          <mxGeometry relative="1" as="geometry" />
        </mxCell>
        <mxCell id="GpqMO6I22LO64prLC7ko-25" value="Analytical Question" style="edgeLabel;html=1;align=center;verticalAlign=middle;resizable=0;points=[];fontSize=9;labelBackgroundColor=none;fontColor=#FFFFFF;" connectable="0" vertex="1" parent="GpqMO6I22LO64prLC7ko-3">
          <mxGeometry x="-0.0791" y="1" relative="1" as="geometry">
            <mxPoint x="4" y="-8" as="offset" />
          </mxGeometry>
        </mxCell>
        <mxCell id="GpqMO6I22LO64prLC7ko-16" style="edgeStyle=orthogonalEdgeStyle;rounded=0;orthogonalLoop=1;jettySize=auto;html=1;exitX=0.5;exitY=1;exitDx=0;exitDy=0;entryX=0.5;entryY=0;entryDx=0;entryDy=0;strokeColor=#FFFFFF;" edge="1" parent="1" source="TapobgN4DE6I1lpDJsEz-12" target="TapobgN4DE6I1lpDJsEz-17">
          <mxGeometry relative="1" as="geometry" />
        </mxCell>
        <mxCell id="GpqMO6I22LO64prLC7ko-26" value="Data Not Available" style="edgeLabel;html=1;align=center;verticalAlign=middle;resizable=0;points=[];labelBackgroundColor=none;fontColor=#FFFFFF;" connectable="0" vertex="1" parent="GpqMO6I22LO64prLC7ko-16">
          <mxGeometry x="-0.0018" y="3" relative="1" as="geometry">
            <mxPoint x="7" y="-4" as="offset" />
          </mxGeometry>
        </mxCell>
        <mxCell id="GpqMO6I22LO64prLC7ko-17" style="edgeStyle=orthogonalEdgeStyle;rounded=0;orthogonalLoop=1;jettySize=auto;html=1;exitX=1;exitY=0.5;exitDx=0;exitDy=0;strokeColor=#FFFFFF;labelBackgroundColor=none;" edge="1" parent="1" source="TapobgN4DE6I1lpDJsEz-12" target="TapobgN4DE6I1lpDJsEz-18">
          <mxGeometry relative="1" as="geometry" />
        </mxCell>
        <mxCell id="GpqMO6I22LO64prLC7ko-27" value="Pleasantries/Already answered" style="edgeLabel;html=1;align=center;verticalAlign=middle;resizable=0;points=[];labelBackgroundColor=none;fontColor=#FFFFFF;" connectable="0" vertex="1" parent="GpqMO6I22LO64prLC7ko-17">
          <mxGeometry x="0.1068" y="-1" relative="1" as="geometry">
            <mxPoint as="offset" />
          </mxGeometry>
        </mxCell>
        <mxCell id="TapobgN4DE6I1lpDJsEz-12" value="Decision &lt;br&gt;Point" style="rhombus;whiteSpace=wrap;html=1;" vertex="1" parent="1">
          <mxGeometry x="415" y="169" width="80" height="80" as="geometry" />
        </mxCell>
        <mxCell id="GpqMO6I22LO64prLC7ko-5" style="edgeStyle=orthogonalEdgeStyle;rounded=0;orthogonalLoop=1;jettySize=auto;html=1;exitX=0;exitY=0.5;exitDx=0;exitDy=0;strokeColor=#FFFFFF;entryX=0.568;entryY=-0.009;entryDx=0;entryDy=0;entryPerimeter=0;" edge="1" parent="1" source="TapobgN4DE6I1lpDJsEz-13" target="TapobgN4DE6I1lpDJsEz-4">
          <mxGeometry relative="1" as="geometry">
            <mxPoint x="222.33338165283203" y="421.33331298828125" as="targetPoint" />
          </mxGeometry>
        </mxCell>
        <mxCell id="GpqMO6I22LO64prLC7ko-29" value="Clear" style="edgeLabel;html=1;align=center;verticalAlign=middle;resizable=0;points=[];labelBackgroundColor=none;fontColor=#FFFFFF;" connectable="0" vertex="1" parent="GpqMO6I22LO64prLC7ko-5">
          <mxGeometry x="0.2645" y="2" relative="1" as="geometry">
            <mxPoint x="11" y="-28" as="offset" />
          </mxGeometry>
        </mxCell>
        <mxCell id="GpqMO6I22LO64prLC7ko-15" style="edgeStyle=orthogonalEdgeStyle;rounded=0;orthogonalLoop=1;jettySize=auto;html=1;exitX=0.5;exitY=1;exitDx=0;exitDy=0;strokeColor=#FFFFFF;" edge="1" parent="1" source="TapobgN4DE6I1lpDJsEz-13">
          <mxGeometry relative="1" as="geometry">
            <mxPoint x="378.3333511352539" y="726.6666870117188" as="targetPoint" />
          </mxGeometry>
        </mxCell>
        <mxCell id="GpqMO6I22LO64prLC7ko-28" value="Ambiguous" style="edgeLabel;html=1;align=center;verticalAlign=middle;resizable=0;points=[];labelBackgroundColor=none;fontColor=#FFFFFF;" connectable="0" vertex="1" parent="GpqMO6I22LO64prLC7ko-15">
          <mxGeometry x="-0.0644" y="-5" relative="1" as="geometry">
            <mxPoint x="13" y="-16" as="offset" />
          </mxGeometry>
        </mxCell>
        <mxCell id="TapobgN4DE6I1lpDJsEz-13" value="Intent &lt;br&gt;Clear?" style="rhombus;whiteSpace=wrap;html=1;" vertex="1" parent="1">
          <mxGeometry x="271" y="316" width="80" height="80" as="geometry" />
        </mxCell>
        <mxCell id="GpqMO6I22LO64prLC7ko-7" style="edgeStyle=orthogonalEdgeStyle;rounded=0;orthogonalLoop=1;jettySize=auto;html=1;exitX=0.5;exitY=1;exitDx=0;exitDy=0;entryX=0.5;entryY=0;entryDx=0;entryDy=0;strokeColor=#FFFFFF;" edge="1" parent="1" source="TapobgN4DE6I1lpDJsEz-14" target="TapobgN4DE6I1lpDJsEz-6">
          <mxGeometry relative="1" as="geometry" />
        </mxCell>
        <mxCell id="GpqMO6I22LO64prLC7ko-32" value="Success" style="edgeLabel;html=1;align=center;verticalAlign=middle;resizable=0;points=[];labelBackgroundColor=none;fontColor=#FFFFFF;" connectable="0" vertex="1" parent="GpqMO6I22LO64prLC7ko-7">
          <mxGeometry x="-0.1" y="2" relative="1" as="geometry">
            <mxPoint x="21" y="-3" as="offset" />
          </mxGeometry>
        </mxCell>
        <mxCell id="GpqMO6I22LO64prLC7ko-9" style="edgeStyle=orthogonalEdgeStyle;rounded=0;orthogonalLoop=1;jettySize=auto;html=1;exitX=0;exitY=0.5;exitDx=0;exitDy=0;entryX=0.5;entryY=0;entryDx=0;entryDy=0;strokeColor=#FFFFFF;" edge="1" parent="1" source="TapobgN4DE6I1lpDJsEz-14" target="TapobgN4DE6I1lpDJsEz-7">
          <mxGeometry relative="1" as="geometry">
            <Array as="points">
              <mxPoint x="182" y="593" />
              <mxPoint x="67" y="593" />
            </Array>
          </mxGeometry>
        </mxCell>
        <mxCell id="GpqMO6I22LO64prLC7ko-30" value="Too Large" style="edgeLabel;html=1;align=center;verticalAlign=middle;resizable=0;points=[];labelBackgroundColor=none;fontColor=#FFFFFF;" connectable="0" vertex="1" parent="GpqMO6I22LO64prLC7ko-9">
          <mxGeometry x="0.0667" y="1" relative="1" as="geometry">
            <mxPoint x="3" y="7" as="offset" />
          </mxGeometry>
        </mxCell>
        <mxCell id="GpqMO6I22LO64prLC7ko-11" style="edgeStyle=orthogonalEdgeStyle;rounded=0;orthogonalLoop=1;jettySize=auto;html=1;exitX=0;exitY=0.5;exitDx=0;exitDy=0;entryX=0.5;entryY=0;entryDx=0;entryDy=0;strokeColor=#FFFFFF;" edge="1" parent="1" source="TapobgN4DE6I1lpDJsEz-14" target="TapobgN4DE6I1lpDJsEz-8">
          <mxGeometry relative="1" as="geometry" />
        </mxCell>
        <mxCell id="GpqMO6I22LO64prLC7ko-31" value="Error" style="edgeLabel;html=1;align=center;verticalAlign=middle;resizable=0;points=[];labelBackgroundColor=none;fontColor=#FFFFFF;" connectable="0" vertex="1" parent="GpqMO6I22LO64prLC7ko-11">
          <mxGeometry x="-0.1771" relative="1" as="geometry">
            <mxPoint y="-9" as="offset" />
          </mxGeometry>
        </mxCell>
        <mxCell id="TapobgN4DE6I1lpDJsEz-14" value="&lt;font style=&quot;font-size: 10px;&quot;&gt;Query &lt;br&gt;Execution Success?&lt;/font&gt;" style="rhombus;whiteSpace=wrap;html=1;" vertex="1" parent="1">
          <mxGeometry x="182" y="538" width="80" height="80" as="geometry" />
        </mxCell>
        <mxCell id="GpqMO6I22LO64prLC7ko-18" style="edgeStyle=orthogonalEdgeStyle;rounded=0;orthogonalLoop=1;jettySize=auto;html=1;exitX=0.5;exitY=1;exitDx=0;exitDy=0;entryX=0;entryY=0.5;entryDx=0;entryDy=0;strokeColor=#FFFFFF;" edge="1" parent="1" source="TapobgN4DE6I1lpDJsEz-15" target="TapobgN4DE6I1lpDJsEz-9">
          <mxGeometry relative="1" as="geometry" />
        </mxCell>
        <mxCell id="TapobgN4DE6I1lpDJsEz-15" value="Scenario A: Generate answer with insights" style="rounded=1;whiteSpace=wrap;html=1;fillColor=#fff2cc;strokeColor=#d6b656;" vertex="1" parent="1">
          <mxGeometry x="151" y="727" width="142" height="39" as="geometry" />
        </mxCell>
        <mxCell id="TapobgN4DE6I1lpDJsEz-16" value="Scenario B: Clarify Intent" style="rounded=1;whiteSpace=wrap;html=1;fillColor=#fff2cc;strokeColor=#d6b656;" vertex="1" parent="1">
          <mxGeometry x="309" y="729" width="142" height="39" as="geometry" />
        </mxCell>
        <mxCell id="GpqMO6I22LO64prLC7ko-20" style="edgeStyle=orthogonalEdgeStyle;rounded=0;orthogonalLoop=1;jettySize=auto;html=1;exitX=0.5;exitY=1;exitDx=0;exitDy=0;strokeColor=#FFFFFF;" edge="1" parent="1" source="TapobgN4DE6I1lpDJsEz-17">
          <mxGeometry relative="1" as="geometry">
            <mxPoint x="473.00003814697266" y="807.3333435058594" as="targetPoint" />
          </mxGeometry>
        </mxCell>
        <mxCell id="TapobgN4DE6I1lpDJsEz-17" value="Scenario C: Data Not Available" style="rounded=1;whiteSpace=wrap;html=1;fillColor=#fff2cc;strokeColor=#d6b656;" vertex="1" parent="1">
          <mxGeometry x="467" y="729" width="142" height="39" as="geometry" />
        </mxCell>
        <mxCell id="GpqMO6I22LO64prLC7ko-22" style="edgeStyle=orthogonalEdgeStyle;rounded=0;orthogonalLoop=1;jettySize=auto;html=1;exitX=0.5;exitY=1;exitDx=0;exitDy=0;entryX=1;entryY=0.5;entryDx=0;entryDy=0;strokeColor=#FFFFFF;" edge="1" parent="1" source="TapobgN4DE6I1lpDJsEz-18" target="TapobgN4DE6I1lpDJsEz-9">
          <mxGeometry relative="1" as="geometry" />
        </mxCell>
        <mxCell id="TapobgN4DE6I1lpDJsEz-18" value="Scenario D: Direct Answer" style="rounded=1;whiteSpace=wrap;html=1;fillColor=#fff2cc;strokeColor=#d6b656;" vertex="1" parent="1">
          <mxGeometry x="625" y="729" width="142" height="39" as="geometry" />
        </mxCell>
        <mxCell id="GpqMO6I22LO64prLC7ko-19" style="edgeStyle=orthogonalEdgeStyle;rounded=0;orthogonalLoop=1;jettySize=auto;html=1;exitX=0.5;exitY=1;exitDx=0;exitDy=0;entryX=0.378;entryY=0.085;entryDx=0;entryDy=0;entryPerimeter=0;strokeColor=#FFFFFF;" edge="1" parent="1" source="TapobgN4DE6I1lpDJsEz-16" target="TapobgN4DE6I1lpDJsEz-9">
          <mxGeometry relative="1" as="geometry" />
        </mxCell>
        <mxCell id="GpqMO6I22LO64prLC7ko-33" value="&lt;h2 class=&quot;text-xl font-bold text-text-100 mt-1 -mb-0.5&quot;&gt;&lt;strong&gt;Core Components:&lt;/strong&gt;&lt;/h2&gt;&lt;br&gt;&lt;ol depth=&quot;0&quot; class=&quot;[&amp;amp;:not(:last-child)_ul]:pb-1 [&amp;amp;:not(:last-child)_ol]:pb-1 list-decimal space-y-1.5 pl-7&quot;&gt;&lt;br&gt;&lt;li class=&quot;whitespace-normal break-words&quot;&gt;&lt;strong&gt;Orchestrator&lt;/strong&gt; - The decision engine that routes questions to appropriate handlers&lt;/li&gt;&lt;br&gt;&lt;li class=&quot;whitespace-normal break-words&quot;&gt;&lt;strong&gt;Intent Extraction&lt;/strong&gt; - Analyzes if questions are clear or need clarification&lt;/li&gt;&lt;br&gt;&lt;li class=&quot;whitespace-normal break-words&quot;&gt;&lt;strong&gt;SQL Generation &amp;amp; Execution&lt;/strong&gt; - Creates and runs database queries with error handling&lt;/li&gt;&lt;br&gt;&lt;li class=&quot;whitespace-normal break-words&quot;&gt;&lt;strong&gt;Response Generation&lt;/strong&gt; - Produces answers based on different scenarios&lt;/li&gt;&lt;br&gt;&lt;/ol&gt;&lt;br&gt;&lt;h2 class=&quot;text-xl font-bold text-text-100 mt-1 -mb-0.5&quot;&gt;&lt;strong&gt;Four Response Scenarios:&lt;/strong&gt;&lt;/h2&gt;&lt;br&gt;&lt;ul depth=&quot;0&quot; class=&quot;[&amp;amp;:not(:last-child)_ul]:pb-1 [&amp;amp;:not(:last-child)_ol]:pb-1 list-disc space-y-1.5 pl-7&quot;&gt;&lt;br&gt;&lt;li class=&quot;whitespace-normal break-words&quot;&gt;&lt;strong&gt;Scenario A&lt;/strong&gt;: Full analytical response with SQL insights and results&lt;/li&gt;&lt;br&gt;&lt;li class=&quot;whitespace-normal break-words&quot;&gt;&lt;strong&gt;Scenario B&lt;/strong&gt;: Direct answers for pleasantries or previously answered questions&lt;/li&gt;&lt;br&gt;&lt;li class=&quot;whitespace-normal break-words&quot;&gt;&lt;strong&gt;Scenario C&lt;/strong&gt;: Handles requests for unavailable data with alternatives&lt;/li&gt;&lt;br&gt;&lt;li class=&quot;whitespace-normal break-words&quot;&gt;&lt;strong&gt;Scenario D&lt;/strong&gt;: Clarifies ambiguous analytical intents&lt;/li&gt;&lt;br&gt;&lt;/ul&gt;&lt;br&gt;&lt;h2 class=&quot;text-xl font-bold text-text-100 mt-1 -mb-0.5&quot;&gt;&lt;strong&gt;Key Features:&lt;/strong&gt;&lt;/h2&gt;&lt;br&gt;&lt;ul depth=&quot;0&quot; class=&quot;[&amp;amp;:not(:last-child)_ul]:pb-1 [&amp;amp;:not(:last-child)_ol]:pb-1 list-disc space-y-1.5 pl-7&quot;&gt;&lt;br&gt;&lt;li class=&quot;whitespace-normal break-words&quot;&gt;&lt;strong&gt;Smart Routing&lt;/strong&gt;: Distinguishes between analytical vs. non-analytical questions&lt;/li&gt;&lt;br&gt;&lt;li class=&quot;whitespace-normal break-words&quot;&gt;&lt;strong&gt;Error Recovery&lt;/strong&gt;: Automatically corrects SQL syntax errors and refines oversized queries&lt;/li&gt;&lt;br&gt;&lt;li class=&quot;whitespace-normal break-words&quot;&gt;&lt;strong&gt;Memory Management&lt;/strong&gt;: Summarizes long conversation histories to stay within token limits&lt;/li&gt;&lt;br&gt;&lt;li class=&quot;whitespace-normal break-words&quot;&gt;&lt;strong&gt;Progress Tracking&lt;/strong&gt;: Uses intermediate steps to manage the execution flow&lt;/li&gt;&lt;/ul&gt;" style="text;html=1;align=left;verticalAlign=middle;resizable=0;points=[];autosize=1;strokeColor=none;fillColor=none;fontColor=#FFFFFF;" vertex="1" parent="1">
          <mxGeometry x="-812" y="137" width="536" height="688" as="geometry" />
        </mxCell>
      </root>
    </mxGraphModel>
  </diagram>
</mxfile>
